# xmcd
#
# Track frame offsets:
#	150
#	10670
#	27270
#	39303
#	52790
#	69368
#	90855
#	105393
#	121515
#	135148
#	151898
#
# Disc length: 2204 seconds
#
# Revision: 1
# Processed by: cddbd v1.5.1PL0 Copyright (c) Steve Scherf et al.
# Submitted via: CDex 1.50Beta5
#
DISCID=64089a0b
DTITLE=佐藤奈々子 - Sweet Swingin'
DYEAR=1900
DGENRE=Pop
TTITLE0=グッド・タイム・スウィンギン
TTITLE1=フェアウェル・パーティー
TTITLE2=ラズベリー・ラヴァー
TTITLE3=ハリー・ブギー
TTITLE4=スリーピー・コール
TTITLE5=ミューズの恋人
TTITLE6=週末のハイウェイ
TTITLE7=海にうかぶピアノ
TTITLE8=チープ・ダンス
TTITLE9=オリーブの風
TTITLE10=イヴの月の上で
EXTD=
EXTT0=
EXTT1=
EXTT2=
EXTT3=
EXTT4=
EXTT5=
EXTT6=
EXTT7=
EXTT8=
EXTT9=
EXTT10=
PLAYORDER=
